<svg version="1.2" xmlns="http://www.w3.org/2000/svg" viewBox="0 0 512 512" width="512" height="512">
	<title>logo</title>
	<style>
		.s0 { fill: #ffffff } 
	</style>
	<path class="s0" d="m205.6 137.8c9.1 3.2 17.8 5.8 27.4 7.2q1.7 0.3 3.5 0.5c24.9 3 49-0.3 72.4-8.9 5.6-2 10.1-3.2 16.1-2.6 6.6 3.2 10.7 8.5 13.2 15.3 3.4 10.8 6 21.8 8.4 32.9q0.6 2.8 1.3 5.6 1.3 5.9 2.5 11.8 1.7 7.6 3.3 15.1 1.6 7.2 3.2 14.5 0.3 1.3 0.6 2.7 0.9 3.9 1.7 7.8 0.3 1.1 0.5 2.3c0.9 4 1.7 8 2.3 12q0.9 0.1 1.9 0.1c7.6 0.5 14.8 2 22.3 3.7q2.9 0.7 5.9 1.4c17.4 4.1 17.4 4.1 22 9.1 1.2 3.7 0.9 6-0.1 9.7-1.5 2.4-1.5 2.4-4 4-7.1 0.5-13-0.8-19.8-2.7-87.2-22.8-193.4-22.4-280.2 2.7-4.3 0.7-7.3 0.5-11-2-2.2-3.3-2.6-5.1-2.7-8.9 1.1-3.4 3-4.9 5.7-7.1 2.7-1 5.1-1.8 7.8-2.5q1.2-0.3 2.3-0.6c6.9-1.7 13.8-3.2 20.6-4.7q1.6-0.3 3.2-0.7c4.7-1 9.2-1.8 14.1-1.5q0.2-1.9 0.4-3.9c0.5-4.8 1.4-9.5 2.5-14.2 0.3-1.3 0.3-1.3 0.6-2.6q0.9-4.3 1.8-8.5 0.7-2.9 1.3-5.9 1.4-6.2 2.8-12.4 1.8-7.9 3.5-15.9 1.4-6.1 2.7-12.2 0.7-2.9 1.3-5.8c6.7-30.7 6.7-30.7 16.8-37.8 7.7-2.7 14.6 0.4 21.9 3z"/>
	<path class="s0" d="m117.5 67.7q1.8 0 3.7 0 5.1 0 10.2 0 5.5 0 11 0 10.8 0 21.6 0 8.8 0 17.5 0 1.3 0 2.6 0 2.5 0 5.1 0 23.8 0 47.6 0 21.7 0 43.5 0 22.3-0.1 44.7-0.1 12.5 0 25.1 0 10.7 0 21.3 0 5.5 0 10.9 0 5.9 0 11.9 0 1.6 0 3.4 0c12.6 0.1 24.1 2.7 33.6 11.4 10.7 11.4 13.1 23.4 13.1 38.5q0 1.8 0 3.7 0 5.1 0 10.2 0 5.5 0 11 0 10.8 0 21.6 0 8.8 0 17.5 0 1.3 0 2.6 0 2.5 0 5.1 0 23.8 0 47.6 0 21.7 0 43.5 0.1 22.3 0.1 44.7 0 12.5 0 25.1 0 10.7 0 21.3 0 5.5 0 10.9 0 5.9 0 11.9 0 1.6 0 3.4c-0.1 13.3-3.2 24.5-12.3 34.5-10.9 10.2-23.2 12.2-37.6 12.2q-1.8 0-3.7 0-5.1 0-10.2 0-5.5 0-11 0-10.8 0-21.6 0-8.8 0-17.5 0c-1.3 0-1.3 0-2.6 0q-2.5 0-5.1 0-23.8 0-47.6 0-21.7 0-43.5 0-22.3 0.1-44.7 0.1-12.5 0-25.1 0-10.7 0-21.3 0-5.5 0-10.9 0-5.9 0-11.9 0-1.6 0-3.4 0c-13.3-0.1-24.5-3.2-34.5-12.3-10.2-10.9-12.2-23.2-12.2-37.6q0-1.8 0-3.7 0-5.1 0-10.2 0-5.5 0-11 0-10.8 0-21.6 0-8.8 0-17.5 0-1.3 0-2.6 0-2.5 0-5.1 0-23.8 0-47.6 0-21.7 0-43.5-0.1-22.3-0.1-44.7 0-12.5 0-25.1 0-10.7 0-21.3 0-5.5 0-10.9 0-5.9 0-11.9 0-1.6 0-3.4c0.1-13.3 3.2-24.5 12.3-34.5 10.9-10.2 23.2-12.2 37.6-12.2zm-30.5 26.3c-3.9 5.7-5.1 11.4-5.1 18.2q0 1.6 0 3.2 0 1.7 0 3.4 0 1.8 0 3.7-0.1 5-0.1 10 0 5.5 0 10.9 0 11.9 0 23.8 0 7.4 0 14.8 0 20.5 0 41.1 0 1.3 0 2.6 0 1.3 0 2.7 0 2.7 0 5.3 0 1.3 0 2.7 0 21.4-0.1 42.9 0 22 0 44.1 0 12.3 0 24.7-0.1 10.5-0.1 21.1 0 5.3 0 10.7 0 5.8 0 11.7c0 1.6 0 1.6 0 3.4 0.1 9.9 1.7 19.3 9 26.6 6.5 5.9 12.8 8.5 21.6 8.5q1.6 0 3.2 0 1.7 0 3.4 0c1.8 0 1.8 0 3.7 0q5 0.1 10 0.1 5.5 0 10.9 0 11.9 0 23.8 0 7.4 0 14.8 0 20.5 0 41.1 0c1.3 0 1.3 0 2.6 0q1.3 0 2.7 0 2.7 0 5.3 0c1.3 0 1.3 0 2.7 0q21.4 0 42.9 0.1 22 0 44.1 0 12.3 0 24.7 0 10.5 0.1 21.1 0.1 5.3 0 10.7 0 5.8 0 11.7 0c1.6 0 1.6 0 3.4 0 9.9-0.1 19.3-1.7 26.6-9 5.9-6.5 8.5-12.8 8.5-21.6q0-1.6 0-3.2c0-1.7 0-1.7 0-3.4q0-1.9 0-3.7 0.1-5.1 0.1-10.1 0-5.5 0-10.9 0-11.9 0-23.9 0-7.4 0-14.8 0-20.6 0-41.3 0-1.3 0-2.6 0-1.3 0-2.7 0-2.7 0-5.3 0-1.4 0-2.7 0-21.6 0.1-43.1 0-22.1 0-44.2 0-12.4 0-24.8 0.1-10.6 0.1-21.1 0-5.4 0-10.8 0-5.9 0-11.7 0-1.7 0-3.4c-0.1-9.5-1.5-19.1-8.4-26.1-9.1-7.5-17.8-8.3-29.2-8.3-1.8 0-1.8 0-3.7 0q-5 0-10.1 0-5.4 0-10.9 0-10.6 0-21.3 0-8.7 0-17.3 0-1.2 0-2.5 0-2.5 0-5 0-23.5 0-47.1 0-21.4 0-42.9 0-22.1-0.1-44.2-0.1-12.4 0-24.8 0-10.5 0-21.1 0-5.4 0-10.8 0-5.8 0-11.6 0-1.7 0-3.4 0c-12.5 0.1-20.7 3-29.1 12.4z"/>
	<path class="s0" d="m218.7 292.5c6.1 4 10.7 8.9 15.3 14.5 1 1 1 1 2 2 2.1-0.2 2.1-0.2 4.6-0.9 12.1-2.4 24.4-1.4 36.4 0.9q0.5-0.7 1-1.5c7.7-10.7 17.1-17.4 30-20.5 15.6-1.3 27.8 1.7 40.1 11.7 8.5 7.8 13.4 18.5 14.2 29.9 0.5 13.3-2.5 24.1-11.3 34.4-5.8 6.3-12 10-20 13q-1 0.4-2 0.7c-11.8 3.6-24.2 1.2-35-4.2-11.7-7-18.6-16.4-22.2-29.5-1.1-4.9-1.4-10-1.8-15-2.9-0.8-5.6-1.1-8.6-1.1q-1.3 0-2.7 0-1.3 0-2.7 0-1.3 0-2.7 0c-1.3 0-1.3 0-2.7 0q-1.2 0-2.4 0c-2.2 0.1-4.1 0.5-6.2 1.1q-0.1 1.4-0.3 2.9c-1.7 14.3-5.1 26.5-16.3 36.4-11.3 8.7-22.3 11.6-36.4 10.7-11.9-1.9-22.4-7.7-30-17-6.3-8.8-9.6-17.5-9.4-28.4q0-1.2 0-2.5c0.3-13.4 6.5-24.1 16.1-33.2 15.1-12 36.2-13.6 53-4.4z"/>
</svg>