<?xml version="1.0" encoding="UTF-8"?>
<svg xmlns="http://www.w3.org/2000/svg" id="Layer_1" data-name="Layer 1" viewBox="0 0 24 24">
  <path d="M19.5,11c-.276,0-.5,.224-.5,.5v5.5H5v-.5c0-.276-.224-.5-.5-.5s-.5,.224-.5,.5v3c0,2.481,2.019,4.5,4.5,4.5h7c2.481,0,4.5-2.019,4.5-4.5V11.5c0-.276-.224-.5-.5-.5Zm-4,12h-7c-1.93,0-3.5-1.57-3.5-3.5v-1.5h14v1.5c0,1.93-1.57,3.5-3.5,3.5Zm-1.5-2.5c0,.276-.224,.5-.5,.5h-3c-.276,0-.5-.224-.5-.5s.224-.5,.5-.5h3c.276,0,.5,.224,.5,.5Zm-5.675-4.811c.683,.454,1.675-.034,1.672-.915l.002-6.772c0-1.65-1.349-3-2.999-3.001H3.001s-.001-.001-.001-.001C1.343,5,0,6.343,0,8v2.999C0,12.657,1.343,14,3,14h2.872l2.454,1.69ZM1,11v-2.999c0-1.103,.898-2,2.001-2h3.999c1.103,.002,2,.899,1.999,2.002l-.002,6.774c0,.029-.006,.04-.018,.052-.02,.02-.052,.033-.087,.037l-2.454-1.69c-.167-.115-.365-.176-.567-.176H3c-1.103,0-2-.897-2-2ZM21,0h-4c-1.65,.002-2.999,1.352-2.999,3.002l.002,6.772c-.002,.881,.989,1.369,1.672,.915l2.454-1.69h2.872c1.657,0,3-1.343,3-3V3C24,1.344,22.657,0,21,0Zm2,5.999c0,1.103-.897,2-2,2h-2.872c-.203,0-.4,.061-.567,.176l-2.463,1.686c-.026,0-.058-.014-.078-.033-.012-.012-.018-.024-.018-.055l-.002-6.772c0-1.103,.897-2,1.999-2.001h3.999s0-.001,0-.001c1.103,0,2,.897,2,2v2.999ZM4.603,2.25c.803-1.388,2.296-2.25,3.897-2.25h3.5c.276,0,.5,.224,.5,.5s-.224,.5-.5,.5h-3.5c-1.245,0-2.407,.671-3.032,1.75-.139,.241-.448,.32-.683,.183-.239-.139-.321-.444-.182-.683Z"/>
</svg>
