<?xml version="1.0" encoding="utf-8"?>
<!-- Generator: Adobe Illustrator 25.0.0, SVG Export Plug-In . SVG Version: 6.00 Build 0)  -->
<svg version="1.1" id="Layer_1" xmlns="http://www.w3.org/2000/svg" xmlns:xlink="http://www.w3.org/1999/xlink" x="0px" y="0px"
	 viewBox="0 0 512 512" style="enable-background:new 0 0 512 512;" xml:space="preserve">
<g>
	<path d="M190.5,240.4c66,0,119.8-53.7,119.8-119.8S256.5,0.8,190.5,0.8S70.7,54.6,70.7,120.6S124.5,240.4,190.5,240.4z M190.5,20.7
		c55.1,0,99.9,44.8,99.9,99.9s-44.8,99.9-99.9,99.9s-99.9-44.8-99.9-99.9S135.4,20.7,190.5,20.7z"/>
	<path d="M466.3,458.2c21.2-21.6,34.3-51.2,34.3-83.8c0-66-53.7-119.8-119.8-119.8c-32.6,0-62.2,13.1-83.8,34.3
		c-0.3,0.2-0.6,0.5-0.9,0.8c-0.3,0.3-0.5,0.6-0.8,0.9c-21.2,21.6-34.3,51.2-34.3,83.8c0,66,53.7,119.8,119.8,119.8
		c32.6,0,62.2-13.1,83.8-34.3c0.3-0.2,0.6-0.5,0.9-0.8C465.8,458.8,466,458.5,466.3,458.2z M480.7,374.3c0,24-8.5,46-22.6,63.3
		L317.5,297.1c17.2-14.1,39.3-22.6,63.3-22.6C435.9,274.4,480.7,319.2,480.7,374.3z M280.9,374.3c0-24,8.5-46,22.6-63.3l140.6,140.6
		c-17.2,14.1-39.3,22.6-63.3,22.6C325.7,474.3,280.9,429.5,280.9,374.3z"/>
	<path d="M234.4,305.1c-3.8-0.7-93.8-16.5-159,36.9c-41.3,33.8-62.8,87.3-64,159.1c-0.1,5.5,4.3,10,9.8,10.1c0.1,0,0.1,0,0.2,0
		c5.4,0,9.8-4.3,9.9-9.8c1-65.6,20.1-114,56.6-143.9c58-47.6,142.2-33,143-32.8c5.4,1,10.5-2.6,11.5-8
		C243.4,311.3,239.8,306.1,234.4,305.1z"/>
</g>
</svg>
